<svg version="1.1" id="svgDef" xmlns="http://www.w3.org/2000/svg" xmlns:xlink="http://www.w3.org/1999/xlink">
    <defs>
        <path id="iconPinterest" d="M131.7,50.1c-3.7-26.6-30.2-40.1-58.4-37c-22.4,2.5-44.6,20.6-45.6,46.4c-0.6,15.8,3.9,27.6,18.9,30.9
              c6.5-11.5-2.1-14-3.4-22.4c-5.5-34.1,39.3-57.3,62.8-33.5c16.2,16.5,5.5,67.2-20.6,61.9c-25.1-5,12.3-45.4-7.7-53.3
              c-16.3-6.4-24.9,19.7-17.2,32.7c-4.5,22.3-14.3,43.3-10.3,71.3c12.8-9.3,17.1-27,20.6-45.6c6.4,3.9,9.9,8,18.1,8.6
              C119,112.6,135.9,80.1,131.7,50.1z"></path>
        <path id="iconTwitter" d="M149.5,36.9c-5.1,2.3-10.6,3.8-16.4,4.5c5.9-3.5,10.4-9.1,12.5-15.8c-5.5,3.3-11.6,5.6-18.1,6.9
              c-5.2-5.5-12.6-9-20.8-9c-15.7,0-28.5,12.8-28.5,28.5c0,2.2,0.3,4.4,0.7,6.5C55.3,57.4,34.3,46,20.2,28.8c-2.5,4.2-3.9,9.1-3.9,14.3
              c0,9.9,5,18.6,12.7,23.7c-4.7-0.2-9.1-1.4-12.9-3.6v0.4c0,13.8,9.8,25.3,22.9,28c-2.4,0.6-4.9,1-7.5,1c-1.8,0-3.6-0.2-5.4-0.5
              c3.6,11.3,14.2,19.6,26.6,19.8C43,119.5,30.7,124,17.3,124c-2.3,0-4.6-0.1-6.8-0.4c12.6,8.1,27.6,12.8,43.7,12.8
              c52.4,0,81.1-43.4,81.1-81.1l-0.1-3.7C140.8,47.6,145.7,42.6,149.5,36.9z"></path>
        <path id="iconGithub" d="M102.4,143c-0.6,0.2-1.3,0.5-1.9,0.6c-2.5,0.4-4.1-0.8-4.1-3.4c0-4.8,0-9.5,0-14.3c0.1-5.5,0-10.9-4.2-15.4
              c2.5-0.4,4.7-0.8,6.8-1.2C113.3,106,120.7,97,121.6,82c0.5-7.6-0.9-14.6-5.9-20.6c-0.4-0.4-0.4-1.4-0.2-2c1.3-5,1-9.8-0.6-14.6
              c-0.4-1.2-1-1.6-2.2-1.5c-4.2,0.2-8,1.7-11.4,4C98,49.5,94.9,50,91,49.1c-8.5-1.9-17.1-1.4-25.7,0.6c-1,0.2-2.3-0.1-3.1-0.6
              c-4-2.3-8-4.6-12.6-5.5c-3.6-0.7-3.9-0.5-4.8,2.9c-1.2,4.3-1.3,8.7-0.1,13.1c0.2,0.6,0,1.7-0.4,2.1c-9.5,10.5-6,30.5,0.3,38.1
              c5,5.9,11.5,8.6,18.8,10c1.3,0.2,2.5,0.4,3.8,0.6c-1.1,2.8-2.1,5.5-3.2,8.2c-0.2,0.5-0.9,0.9-1.5,1.2c-7.2,2.8-13.3,0.7-17.4-5.8
              c-2.2-3.5-5-6.1-9.2-6.8c-0.1,0-0.3-0.1-0.4-0.1c-1.1,0.3-2.2,0.6-3.4,0.9c0.6,0.9,1.1,2.1,1.9,2.6c3.6,2.3,5.9,5.5,7.4,9.2
              c2.4,5.9,7.1,8.6,13.1,9.1c3,0.2,5.9,0,9.2,0c0,3.7,0.1,7.9-0.1,12.1c-0.1,2.3-2.4,3.2-5.1,2.2c-7.2-2.5-13.9-6-19.6-11
              c-20.8-17.9-28.8-40.6-21.9-67.1C24,38.8,42,22.5,68.9,17.4c37.2-7,72.4,20,76.1,57.8C147.9,105,130.4,132.8,102.4,143z M67.3,110.3
              c0,0.1,0,0.1-0.1,0.1c0.1,0,0.1,0,0.2,0C67.5,110.5,67.6,110.6,67.3,110.3z M50.5,122c0.6,0.4,1.1,0.8,1.8,1c0.2,0.1,0.7-0.4,1.4-1
              c-1-0.4-1.7-0.7-2.3-0.8C51.1,121.2,50.8,121.8,50.5,122z M55.8,123c0.1,0.4,0.9,0.9,1.3,0.9c0.4,0,0.9-0.6,1.3-0.9
              c-0.4-0.4-0.8-0.7-2-1.8C56.1,121.8,55.7,122.5,55.8,123z M62.3,121.4c-0.5,0.1-1,0.6-1.5,1c0.3,0.4,0.6,0.7,1.1,1.3
              c0.6-0.6,1.1-1,1.5-1.4C63,121.9,62.6,121.3,62.3,121.4z M46.2,119.2c0.3,0.6,0.8,1.1,1.4,1.9c0.4-0.7,0.9-1.2,0.8-1.3
              c-0.4-0.5-1-1-1.5-1.4C46.9,118.4,46.1,119.1,46.2,119.2z"></path>
        <path id="iconFlickr" d="M21.9,80c0,14,11.4,25.4,25.4,25.4S72.7,94,72.7,80c0-14-11.4-25.4-25.4-25.4S21.9,66,21.9,80z M87.3,80
              c0,14,11.4,25.4,25.4,25.4S138.1,94,138.1,80c0-14-11.4-25.4-25.4-25.4S87.3,66,87.3,80z"></path>
        <path id="iconFacebook" d="M61.3,39.7c0-0.8,0.1-2.6,0.3-5.3c0.2-2.7,1.3-5.5,3.1-8.5c1.8-3,4.8-5.6,8.9-8c4.1-2.3,10-3.5,17.7-3.5
              H113v23.6H97.1c-1.6,0-3,0.6-4.4,1.8c-1.3,1.2-2,2.3-2,3.3v14.7H113c-0.2,2.9-0.5,5.7-0.8,8.4l-0.9,7.1c-0.4,2.4-0.7,4.7-1.1,6.7
              H90.6v65.5H61.3V80H47V57.8h14.3V39.7z"></path>
        <path id="iconTumblr" d="M87.5,72.5v27.4c0,6.9-0.1,10.9,0.6,12.9c0.7,2,2.6,4,4.6,5.2c2.6,1.6,5.7,2.4,9.1,2.4
              c6.1,0,9.6-0.8,15.6-4.7v18l0,0c-5.1,2.4-9.6,3.8-13.7,4.8c-4.1,1-8.6,1.4-13.4,1.4c-5.5,0-8.7-0.7-12.9-2.1
              c-4.2-1.4-7.8-3.4-10.7-5.9c-3-2.6-5-5.3-6.2-8.2c-1.1-2.9-1.7-7.1-1.7-12.5V69.2H42.6V52.3c4.7-1.5,9.9-3.7,13.3-6.6
              c3.4-2.9,6-6.3,8.1-10.3c2-4,3.4-9.1,4.2-15.2h19.3l0,29.9h29.9v22.4H87.5z"></path>
        <path id="iconInstagram" fill-rule="evenodd" clip-rule="evenodd" d="M35.5,20.1h89c8.5,0,15.4,6.9,15.4,15.4v89
              c0,8.5-6.9,15.4-15.4,15.4h-89c-8.5,0-15.4-6.9-15.4-15.4v-89C20.1,27.1,27.1,20.1,35.5,20.1L35.5,20.1z M107.3,33.4
              c-3,0-5.4,2.4-5.4,5.4v12.9c0,3,2.4,5.4,5.4,5.4h13.5c3,0,5.4-2.4,5.4-5.4V38.8c0-3-2.4-5.4-5.4-5.4H107.3L107.3,33.4z M126.3,70.8
              h-10.5c1,3.3,1.5,6.7,1.5,10.3c0,19.9-16.7,36.1-37.2,36.1c-20.6,0-37.2-16.1-37.2-36.1c0-3.6,0.5-7,1.5-10.3h-11v50.6
              c0,2.6,2.1,4.8,4.8,4.8h83.4c2.6,0,4.8-2.1,4.8-4.8V70.8L126.3,70.8z M80.1,56.4c-13.3,0-24,10.4-24,23.3s10.8,23.3,24,23.3
              c13.3,0,24-10.4,24-23.3S93.4,56.4,80.1,56.4z"></path>
        <path id="logoTxt" d="M9.6,5H0V0h24.2v5h-9.5v29.1h-5V5H9.6z M53.6,34.1l-2-4.6H35.8l-2,4.6h-5.1L43.7,0l15,34.1H53.6z M38,24.5h11.5L43.7,11
            	L38,24.5z M73.4,0v15.2L84.6,0h6.1l-10,13.8l10.9,20.4h-5.7l-8.6-15.9l-4.1,5.6v10.3h-5V0H73.4z M101.4,0h5v22.3
            	c0,0.2,0.1,0.7,0.3,1.5c0.2,0.8,0.5,1.5,1.1,2.3s1.3,1.5,2.3,2.1s2.3,0.9,4,0.9c1.6,0,2.9-0.3,3.9-0.9s1.8-1.3,2.3-2.1
            	c0.6-0.8,0.9-1.6,1.1-2.3c0.2-0.7,0.3-1.2,0.3-1.5V0h5v22.3c0,0.2,0,0.6-0.1,1.2s-0.3,1.4-0.6,2.3s-0.7,1.8-1.3,2.8
            	c-0.6,1-1.3,1.9-2.3,2.7c-1,0.8-2.1,1.5-3.5,2s-3,0.8-4.9,0.8s-3.6-0.3-5-0.8s-2.5-1.2-3.5-1.9c-0.9-0.8-1.7-1.6-2.2-2.6
            	c-0.6-1-1-1.9-1.3-2.7c-0.3-0.9-0.5-1.7-0.6-2.3c-0.1-0.7-0.1-1.2-0.1-1.5L101.4,0L101.4,0z M137.4,0L151,15.6L164.6,0v34.1h-5v-21
            	l-8.6,9.5l-8.7-9.7v21.2h-5L137.4,0L137.4,0z M180.7,34.1h-5V0h5V34.1z M223.5,0v15h14.1V0h5v34.1h-5V19.8h-14.1v14.4h-5.1V0H223.5z
            	 M277.1,34.1l-2-4.6h-15.9l-2,4.6h-5.1l15-34.1l15,34.1H277.1z M261.5,24.5H273L267.3,11L261.5,24.5z M301.6,0
            	c1.2,0,2.3,0.1,3.3,0.3s1.8,0.5,2.4,0.8c0.8,0.3,1.5,0.7,2.1,1l-2.6,4.4c-0.5-0.3-1-0.5-1.5-0.7s-1-0.4-1.6-0.5
            	c-0.6-0.2-1.3-0.3-2-0.3c-0.8,0-1.5,0.1-2,0.4c-0.6,0.3-1,0.6-1.4,1s-0.6,0.8-0.8,1.3c-0.2,0.5-0.3,0.9-0.3,1.3c0,1.2,0.4,2,1.3,2.6
            	s1.9,1,3.2,1.4c1.3,0.4,2.6,0.7,4.1,1s2.8,0.9,4.1,1.5c1.3,0.7,2.3,1.7,3.2,2.9c0.8,1.2,1.3,3,1.3,5.1c0,1.4-0.3,2.8-0.9,4
            	c-0.6,1.3-1.4,2.4-2.5,3.3c-1.1,1-2.4,1.7-4,2.3s-3.3,0.8-5.3,0.8c-1.6,0-3-0.2-4.2-0.5s-2.3-0.7-3.2-1.2c-0.9-0.5-1.7-0.9-2.4-1.4
            	c-0.7-0.5-1.3-0.9-1.8-1.3l2.6-4.4c1.8,1.4,3.5,2.4,5.1,2.9s2.9,0.8,3.9,0.8c0.9,0,1.8-0.1,2.7-0.3c0.9-0.2,1.7-0.6,2.5-1
            	c0.7-0.4,1.3-1,1.8-1.7c0.4-0.7,0.7-1.5,0.7-2.3c0-1-0.2-1.8-0.7-2.4s-1.1-1.1-1.9-1.5s-1.7-0.8-2.7-1c-1-0.3-2.1-0.5-3.1-0.8
            	c-1.1-0.3-2.1-0.6-3.1-1s-1.9-0.9-2.7-1.6c-0.8-0.7-1.4-1.5-1.9-2.5s-0.7-2.2-0.7-3.7c0-1.7,0.4-3.2,1.1-4.4s1.6-2.1,2.6-2.8
            	s2-1.2,3.1-1.5C300.1,0.2,300.9,0,301.6,0z M346.3,0v4.7h-16V15h12.9v4.7h-12.9v9.6h16v4.8h-21V0H346.3z M383.9,17.6v13
            	c-1.5,1.2-3.1,2.1-5,2.7c-1.8,0.6-3.8,0.9-5.8,0.9c-2.4,0-4.6-0.4-6.6-1.3c-2.1-0.9-3.9-2.1-5.4-3.7c-1.5-1.5-2.8-3.4-3.7-5.4
            	s-1.3-4.3-1.3-6.6c0-2.4,0.4-4.6,1.3-6.6c0.9-2.1,2.1-3.9,3.7-5.4c1.5-1.5,3.4-2.8,5.4-3.7c2.1-0.9,4.3-1.3,6.6-1.3
            	c1.3,0,2.5,0.1,3.6,0.3s2.1,0.5,2.9,0.9c0.9,0.4,1.7,0.8,2.4,1.2c0.7,0.4,1.3,0.9,1.9,1.3l-2.5,4.9C381,8.4,380.6,8,380,7.6
            	c-0.6-0.4-1.2-0.8-1.9-1.1c-0.7-0.3-1.5-0.6-2.3-0.8c-0.8-0.2-1.7-0.3-2.5-0.3c-1.7,0-3.2,0.3-4.6,0.9s-2.7,1.5-3.8,2.6
            	c-1.1,1.1-1.9,2.3-2.5,3.8c-0.6,1.4-0.9,3-0.9,4.6c0,1.7,0.3,3.2,0.9,4.6s1.5,2.7,2.5,3.8c1.1,1.1,2.3,1.9,3.8,2.5
            	c1.4,0.6,3,0.9,4.6,0.9c0.9,0,1.9-0.1,2.8-0.4c1-0.3,1.7-0.6,2.3-1v-5.2h-9.8l2.8-4.7h12.5V17.6z M417.5,34.1l-2-4.6h-15.9l-2,4.6
            	h-5.1l15-34.1l15,34.1H417.5z M401.8,24.5h11.5L407.6,11L401.8,24.5z M456.9,0h5.7l-14.5,34.1l-5.3-12.2l-5.2,12.2L422.6,0h5.7
            	l9.3,20.6l2.3-5.3l-6.1-13.9h5.7l8.6,19.3L456.9,0z M487.5,34.1l-2-4.6h-15.9l-2,4.6h-5.1l15-34.1l15,34.1H487.5z M471.8,24.5h11.5
            	L477.6,11L471.8,24.5z"></path>
        <path id="logoTxt2" d="M10.5,5.4H0V0h26.2v5.4H15.9v31.7h-5.5V5.4H10.5z M58.3,37.1l-2.1-5H38.9l-2.2,5h-5.5L47.5,0l16.3,37.1H58.3z M41.2,26.6
            	h12.5l-6.2-14.7L41.2,26.6z M79.8,0v16.5L92,0h6.7L87.8,14.9l11.9,22.2h-6.1l-9.3-17.2l-4.4,6v11.2h-5.5V0H79.8z M110.2,0h5.5v24.2
            	c0,0.3,0.1,0.8,0.3,1.6c0.2,0.8,0.6,1.7,1.2,2.5c0.6,0.9,1.4,1.6,2.5,2.3c1.1,0.7,2.5,1,4.3,1s3.2-0.3,4.3-1s1.9-1.4,2.5-2.3
            	s1-1.7,1.2-2.5s0.3-1.3,0.3-1.6V0h5.5v24.2c0,0.2,0,0.7-0.2,1.4c-0.1,0.7-0.3,1.5-0.6,2.5s-0.8,2-1.4,3c-0.6,1.1-1.4,2-2.4,3
            	c-1,0.9-2.3,1.6-3.8,2.2c-1.5,0.6-3.3,0.9-5.4,0.9s-3.9-0.3-5.4-0.8s-2.8-1.2-3.8-2.1c-1-0.9-1.8-1.8-2.4-2.8s-1.1-2-1.4-3
            	s-0.5-1.8-0.6-2.6c-0.1-0.8-0.1-1.3-0.1-1.6V0H110.2z M149.3,0l14.8,16.9L178.9,0v37.1h-5.4V14.2l-9.3,10.3L154.8,14v23h-5.5V0z
            	 M196.4,37.1H191V0h5.5v37.1H196.4z M5.5,59v16.3h15.3V59h5.5v37.1h-5.5V80.5H5.5v15.6H0V59H5.5z M63.8,96.1l-2.1-5H44.4l-2.2,5
            	h-5.5L53,59l16.3,37.1H63.8z M46.8,85.6h12.5L53,70.9L46.8,85.6z M90.4,59c1.3,0,2.5,0.1,3.5,0.4c1,0.2,1.9,0.5,2.7,0.8
            	c0.9,0.4,1.6,0.7,2.2,1.1L96,66.1c-0.5-0.3-1.1-0.6-1.7-0.8c-0.5-0.2-1.1-0.4-1.8-0.6c-0.7-0.2-1.4-0.3-2.2-0.3
            	c-0.9,0-1.6,0.1-2.2,0.4s-1.1,0.7-1.5,1.1s-0.7,0.9-0.9,1.4c-0.2,0.5-0.3,1-0.3,1.4c0,1.3,0.5,2.2,1.4,2.8c0.9,0.6,2.1,1.1,3.4,1.5
            	c1.4,0.4,2.9,0.8,4.5,1.1c1.6,0.4,3.1,0.9,4.5,1.7s2.5,1.8,3.4,3.2c0.9,1.3,1.4,3.2,1.4,5.6c0,1.5-0.3,3-0.9,4.4s-1.5,2.6-2.7,3.6
            	s-2.6,1.8-4.3,2.4c-1.7,0.6-3.6,0.9-5.8,0.9c-1.7,0-3.2-0.2-4.5-0.5s-2.5-0.8-3.5-1.3s-1.9-1-2.6-1.6c-0.7-0.5-1.4-1-2-1.4l2.8-4.8
            	c2,1.6,3.8,2.6,5.5,3.2s3.1,0.8,4.2,0.8c1,0,2-0.1,3-0.4s1.9-0.6,2.7-1.1c0.8-0.5,1.4-1.1,1.9-1.8c0.5-0.7,0.7-1.6,0.7-2.5
            	c0-1.1-0.3-1.9-0.8-2.6s-1.2-1.2-2.1-1.7s-1.9-0.8-3-1.1c-1.1-0.3-2.2-0.6-3.4-0.9c-1.2-0.3-2.3-0.7-3.4-1.1s-2.1-1-3-1.7
            	C82.2,75,81.5,74.1,81,73s-0.8-2.4-0.8-4c0-1.9,0.4-3.5,1.2-4.8s1.8-2.3,2.8-3c1.1-0.8,2.2-1.3,3.4-1.6C88.7,59.2,89.7,59,90.4,59z
            	 M139,59v5.1h-17.3v11.2h14v5.2h-14v10.4H139v5.2h-22.8V59H139z M179.8,78.1v14.1c-1.6,1.3-3.4,2.3-5.4,2.9S170.3,96,168,96
            	c-2.6,0-5-0.5-7.2-1.5s-4.2-2.3-5.9-4s-3-3.7-4-5.9s-1.5-4.7-1.5-7.2c0-2.6,0.5-5,1.5-7.2s2.3-4.2,4-5.9c1.7-1.7,3.7-3,5.9-4
            	s4.7-1.4,7.2-1.4c1.4,0,2.7,0.1,3.9,0.4c1.2,0.2,2.2,0.6,3.2,0.9c1,0.4,1.8,0.8,2.6,1.3s1.5,0.9,2,1.4l-2.7,5.3
            	c-0.4-0.4-0.9-0.9-1.5-1.3s-1.3-0.8-2.1-1.2c-0.8-0.3-1.6-0.6-2.5-0.8c-0.9-0.2-1.8-0.3-2.8-0.3c-1.8,0-3.5,0.3-5,1
            	c-1.6,0.7-2.9,1.6-4.1,2.8c-1.2,1.2-2.1,2.5-2.8,4.1s-1,3.2-1,5s0.3,3.5,1,5c0.7,1.6,1.6,2.9,2.8,4.1s2.5,2.1,4.1,2.8
            	c1.6,0.7,3.2,1,5,1c1,0,2-0.1,3-0.4s1.9-0.7,2.5-1.1v-5.7h-10.7l3-5.2L179.8,78.1L179.8,78.1z M216.3,96.1l-2.1-5H197l-2.2,5h-5.5
            	L205.6,59l16.3,37.1H216.3z M199.3,85.6h12.5l-6.2-14.7L199.3,85.6z M259.2,59h6.2l-15.8,37.1l-5.8-13.2l-5.6,13.2L221.9,59h6.1
            	l10.2,22.4l2.5-5.8L234,60.4h6.2l9.4,21L259.2,59z M292.4,96.1l-2.1-5H273l-2.2,5h-5.5L281.7,59L298,96.1H292.4z M275.4,85.6h12.5
            	l-6.2-14.7L275.4,85.6z"></path>
        <path id="logoMark" d="M168.253006,75.914001 C168.145996,76.086998 167.220001,76.671997 166.195007,77.213997 C165.169998,77.757004 164.031998,78.379997 163.666,78.599998 C163.300003,78.82 161.919998,79.629997 160.600006,80.400002 C159.279999,81.169998 157.839996,82.017998 157.399994,82.283997 C156.960007,82.551003 156.330002,82.899002 156,83.057999 C155.669998,83.218002 154.320007,84.000999 153,84.800003 C151.679993,85.598999 150.330002,86.376999 150,86.529999 C149.669998,86.683998 148.860001,87.158997 148.199997,87.586998 C147.539993,88.014 146.369995,88.681999 145.600006,89.07 C144.830002,89.458 143.453995,90.276001 142.542007,90.888 C141.630005,91.499001 140.707001,92 140.490997,92 C140.274994,92 139.873993,92.269997 139.600006,92.599998 C139.326004,92.93 138.764008,93.199997 138.350998,93.199997 C137.938004,93.199997 137.600006,93.350998 137.600006,93.536003 C137.600006,93.720001 137.195007,94.073997 136.699997,94.320999 C136.205002,94.568001 134.720001,95.387001 133.399994,96.140999 L131,97.512001 L130.897003,119.515999 L130.792999,141.520004 L134.087997,143.460007 C135.901001,144.526993 137.746994,145.617996 138.192001,145.884003 C138.636002,146.151001 139.270004,146.498993 139.600006,146.658005 C139.929993,146.817993 141.279999,147.600998 142.600006,148.399994 C143.919998,149.199005 145.270004,149.977005 145.600006,150.130005 C145.929993,150.283997 146.740005,150.755005 147.399994,151.177002 C148.059998,151.600006 149.229996,152.292999 150,152.718994 C155.869995,155.960999 159.365005,158.072006 159.533005,158.479004 C159.606995,158.656006 159.914993,158.800003 160.218994,158.800003 C160.522995,158.800003 162.404999,159.789993 164.399994,161 C168.733994,163.628006 168.869995,163.638 172.199997,161.600006 C173.638,160.720001 174.895004,160 174.992996,160 C175.091003,160 176.804993,159.009995 178.800003,157.800003 C180.794998,156.589996 182.580002,155.600006 182.764999,155.600006 C182.949997,155.600006 183.326004,155.330002 183.600006,155 C183.873993,154.669998 184.436005,154.399994 184.848999,154.399994 C185.261993,154.399994 185.600006,154.223007 185.600006,154.007996 C185.600006,153.792007 186.050003,153.501999 186.600006,153.363998 C187.149994,153.225998 187.600006,152.973999 187.600006,152.802994 C187.600006,152.632996 187.914993,152.384003 188.300003,152.251007 C188.684998,152.117996 189.539993,151.656998 190.199997,151.225998 C190.860001,150.796005 192.210007,150.029007 193.199997,149.522003 C194.190002,149.014999 195.089996,148.485001 195.199997,148.343994 C195.309998,148.203003 196.166,147.688995 197.102005,147.201996 C198.037994,146.714996 198.904007,146.156006 199.026001,145.959 C199.147003,145.761002 199.597,145.600006 200.024002,145.600006 C200.451004,145.600006 200.800003,145.432007 200.800003,145.227005 C200.800003,145.022003 201.205002,144.727997 201.699997,144.572998 C202.664993,144.272003 206.007004,142.061005 206.496002,141.399994 C206.658997,141.179993 206.748993,131.197998 206.695999,119.217003 L206.600006,97.434998 L203.399994,95.507004 C201.639999,94.446999 199.839996,93.403999 199.399994,93.191002 C198.960007,92.976997 198.330002,92.626999 198,92.412003 C196.561005,91.477997 191.970001,88.800003 191.807007,88.800003 C191.709,88.800003 189.994995,87.809998 188,86.599998 C186.005005,85.389999 184.268997,84.400002 184.143997,84.400002 C184.018997,84.400002 183.115997,83.860001 182.138,83.199997 C181.160004,82.540001 180.121002,82 179.828995,82 C179.537003,82 179.087997,81.747002 178.830994,81.436996 C178.574005,81.126999 177.733002,80.574997 176.962997,80.209 C176.192993,79.844002 174.100998,78.656998 172.315002,77.571999 C168.964005,75.537003 168.582001,75.380997 168.253006,75.914001 M39.457001,103.431 C38.431,103.952003 36.921001,104.832001 36.103001,105.389 C35.284,105.945 34.386002,106.400002 34.106998,106.400002 C33.827999,106.400002 33.599998,106.580002 33.599998,106.800003 C33.599998,107.019997 33.389999,107.199997 33.133999,107.199997 C32.876999,107.199997 31.341999,108.026001 29.722,109.036003 L26.777,110.871002 L26.816999,118.824997 L26.857,126.778999 L29.761999,128.589005 C31.360001,129.585007 32.876999,130.399994 33.133999,130.399994 C33.389999,130.399994 33.599998,130.580002 33.599998,130.800003 C33.599998,131.020004 33.856998,131.199997 34.171001,131.199997 C34.486,131.199997 34.984001,131.425003 35.278999,131.699997 C35.863998,132.246002 37.820999,133.386002 39.973,134.434006 C41.457001,135.156998 41.849998,135.020004 46.400002,132.207001 C47.169998,131.731003 48.07,131.218002 48.400002,131.065994 C48.73,130.914993 49.540001,130.434998 50.200001,130 C50.860001,129.565002 51.669998,129.089996 52,128.945007 C52.330002,128.800003 53.185001,128.248993 53.900002,127.720001 L55.200001,126.759003 L55.200001,118.800003 L55.200001,110.841003 L53.862,109.82 C53.125999,109.259003 52.416,108.800003 52.282001,108.800003 C52.148998,108.800003 51.240002,108.260002 50.262001,107.599998 C49.284,106.940002 48.372002,106.400002 48.234001,106.400002 C48.097,106.400002 47.313,105.978996 46.492001,105.463997 C45.671001,104.948997 44.173,104.068001 43.161999,103.505997 L41.324001,102.485001 L39.457001,103.431 M172.626007,104.776001 C173.623993,105.448997 174.514999,106 174.606003,106 C174.697006,106 176.442993,106.994003 178.485992,108.209 C180.529007,109.424004 182.470001,110.569 182.800003,110.751999 C183.298004,111.029999 183.417999,112.519997 183.507996,119.547997 L183.615997,128.009995 L182.608002,128.468994 C182.054001,128.722 181.600006,129.080002 181.600006,129.264008 C181.600006,129.449005 181.335999,129.600006 181.014008,129.600006 C180.692001,129.600006 178.847,130.556 176.914001,131.723999 C174.981003,132.893005 173.130005,133.981003 172.800003,134.143005 C172.470001,134.304993 171.404999,134.867996 170.432999,135.393005 L168.664993,136.348999 L166.462997,135.123993 C165.251007,134.449005 162.664993,132.931 160.716003,131.748993 C158.766998,130.567001 157.080994,129.600006 156.970001,129.600006 C156.858994,129.600006 156.235001,129.205994 155.584,128.725006 L154.399994,127.849998 L154.399994,119.801003 C154.399994,113.954002 154.537003,111.585999 154.899994,111.143997 C155.444,110.482002 161.311005,106.800003 161.822998,106.800003 C161.996002,106.800003 162.438004,106.528 162.806,106.194 C166.072006,103.238998 169.595001,102.730003 172.626007,104.776001 M87,120.336998 C86.339996,120.700996 85.709999,121.089996 85.599998,121.199997 C85.253998,121.545998 83.834999,122.387001 82.939003,122.776001 C82.464996,122.982002 81.959999,123.342003 81.815002,123.574997 C81.670998,123.808998 81.280998,124 80.949997,124 C80.617996,124 79.773003,124.438004 79.071999,124.973 C78.370003,125.507004 77.347,126.144997 76.797997,126.389999 C76.249001,126.634003 75.440002,127.053001 75,127.320999 C72.757004,128.686005 69.330002,130.679993 68.800003,130.927994 C68.470001,131.082001 67.660004,131.535995 67,131.936996 L65.800003,132.664993 L65.695,146.266998 L65.589996,159.867996 L67.095001,160.634003 C67.922997,161.054993 68.690002,161.490005 68.800003,161.600006 C69.078003,161.878006 70.443001,162.723007 71.400002,163.207993 C71.839996,163.431 73.099998,164.158005 74.199997,164.822998 C75.300003,165.488007 76.695,166.222 77.300003,166.455002 C77.904999,166.688004 78.400002,167.020004 78.400002,167.192001 C78.400002,167.365005 78.714996,167.612 79.099998,167.742004 C79.485001,167.871002 80.07,168.134003 80.400002,168.324997 C80.730003,168.516998 81.360001,168.882996 81.800003,169.139008 C82.239998,169.395996 82.870003,169.727005 83.199997,169.876999 C83.529999,170.026001 84.915001,170.826996 86.278,171.656006 L88.754997,173.164001 L91.07,171.927994 C92.344002,171.248993 94.059998,170.266998 94.885002,169.746994 C95.709,169.225998 96.471001,168.800003 96.578003,168.800003 C96.752998,168.800003 103.346001,164.942001 104.800003,163.988007 C105.129997,163.772003 105.669998,163.472 106,163.322006 C106.330002,163.171005 107.904999,162.259003 109.5,161.294006 L112.400002,159.539993 L112.400002,146.253006 L112.400002,132.966003 L109.708,131.382996 C108.226997,130.511993 106.711998,129.619995 106.341003,129.399994 C105.969002,129.179993 105.155998,128.720993 104.532997,128.378998 C103.130997,127.611 98.143997,124.730003 95.199997,122.987 C88.921997,119.272003 88.924004,119.273003 87,120.336998 M262.105011,131.595993 C261.391998,131.979996 260.582001,132.481003 260.304993,132.709 C260.027008,132.936005 258.98999,133.561996 258,134.098999 C253.880005,136.334 253.391998,136.608994 253.199997,136.806 C253.089996,136.919006 252.237,137.369003 251.304993,137.806 C250.371994,138.242996 249.606995,138.716995 249.604996,138.860992 C249.602005,139.003998 249.104996,139.317001 248.5,139.554993 C247.895004,139.792999 247.130005,140.164001 246.800003,140.378998 C244.597,141.811996 239.393997,144.904007 238.671005,145.210007 C238.192001,145.412003 236.899994,146.119995 235.800003,146.783005 C234.699997,147.447006 233.529999,148.115005 233.199997,148.268997 C232.869995,148.421997 231.520004,149.201004 230.199997,150 C228.880005,150.798996 227.529999,151.582001 227.199997,151.742004 C226.869995,151.901001 226.240005,152.248993 225.800003,152.516006 C225.360001,152.781998 223.919998,153.630005 222.600006,154.399994 C221.279999,155.169998 219.839996,156.016998 219.399994,156.283005 C218.960007,156.548004 218.212006,156.942001 217.738998,157.158005 C217.264999,157.373993 216.759995,157.742004 216.615005,157.975006 C216.470993,158.209 216.003006,158.399994 215.576004,158.399994 C215.149002,158.399994 214.800003,158.539001 214.800003,158.709 C214.800003,158.878998 214.125,159.365005 213.300003,159.789001 C212.475006,160.214005 211.026001,161.065002 210.080002,161.679993 C209.134003,162.296005 208.281998,162.800003 208.186996,162.800003 C208.091995,162.800003 206.837997,163.520004 205.399994,164.399994 C203.962006,165.279999 202.707001,166 202.612,166 C202.516006,166 200.649002,167.080002 198.464005,168.399994 C196.279007,169.720001 194.291,170.800003 194.046005,170.800003 C193.800995,170.800003 193.600006,170.979996 193.600006,171.199997 C193.600006,171.419998 193.423004,171.600006 193.207001,171.600006 C192.990997,171.600006 191.638,172.320007 190.199997,173.199997 C188.761993,174.080002 187.473999,174.800003 187.335999,174.800003 C187.199005,174.800003 185.945999,175.520004 184.552994,176.399994 C183.160004,177.279999 181.876999,178 181.703003,178 C181.528,178 180.759003,178.419998 179.992996,178.934006 C179.227005,179.447998 177.339996,180.552994 175.800003,181.389999 C174.259995,182.227005 172.910004,183.024994 172.800003,183.164001 C172.690002,183.302994 172.149994,183.632004 171.600006,183.895004 C171.050003,184.158005 169.699997,184.917007 168.600006,185.580994 C167.5,186.246002 166.330002,186.908005 166,187.054001 C165.669998,187.199005 164.815002,187.751007 164.100006,188.279999 L162.800003,189.240997 L162.800003,247.358002 C162.800003,302.20401 162.839005,305.510986 163.5,306.098999 C163.884995,306.441986 164.919998,307.109009 165.800003,307.582001 C166.679993,308.054993 167.669998,308.606995 168,308.80899 C170.597,310.402008 174.048004,312.399994 174.199997,312.399994 C174.302002,312.399994 175.514008,313.087006 176.893005,313.925995 C178.272003,314.765015 179.669998,315.576996 180,315.730011 C180.330002,315.884003 181.139999,316.36499 181.800003,316.799988 C182.460007,317.234985 183.270004,317.716003 183.600006,317.869995 C184.171997,318.13501 188.733994,320.798004 190,321.605011 C190.330002,321.81601 191.139999,322.259003 191.800003,322.589996 C192.460007,322.921997 193.899994,323.734009 195,324.394989 C196.100006,325.056 197.270004,325.721008 197.600006,325.873993 C197.929993,326.027008 199.548996,326.971985 201.197998,327.976013 C205.720993,330.727997 205.733994,330.735992 206.709,331.175995 C207.209,331.402008 208.608002,332.220001 209.817001,332.993988 C211.026001,333.766998 212.179001,334.399994 212.378998,334.399994 C212.578995,334.399994 212.988998,334.625 213.289993,334.899994 C213.589996,335.174988 214.367996,335.688995 215.018005,336.042999 C215.667999,336.395996 216.830002,337.026001 217.600006,337.442993 C218.369995,337.859009 219.089996,338.311005 219.199997,338.446014 C219.309998,338.580994 219.804993,338.819 220.300003,338.972992 C220.794998,339.127991 221.199997,339.421997 221.199997,339.627014 C221.199997,339.832001 221.460999,340 221.779999,340 C222.098999,340 223.160004,340.540009 224.138,341.200012 C225.115997,341.859985 226.029007,342.399994 226.167999,342.399994 C226.306,342.399994 227.559998,343.119995 228.953003,344 C230.345993,344.880005 231.595993,345.600006 231.729004,345.600006 C231.863007,345.600006 233.604996,346.589996 235.600006,347.799988 C237.595001,349.01001 239.401993,350 239.613998,350 C239.826004,350 240,350.167999 240,350.372986 C240,350.578003 240.395004,350.871002 240.876999,351.023987 C241.358994,351.177002 242.891998,352 244.283997,352.851013 C245.675003,353.703003 246.895004,354.399994 246.992996,354.399994 C247.156998,354.399994 253.813995,358.303009 255.199997,359.212006 C255.529999,359.428009 256.070007,359.726013 256.399994,359.872986 C256.730011,360.020996 257.705994,360.582001 258.569,361.119995 C262.789001,363.748993 266.399994,364.493011 266.399994,362.733002 C266.399994,362.549988 266.592987,362.399994 266.828003,362.399994 C267.062988,362.399994 268.589996,361.589996 270.221008,360.600006 C271.85199,359.609985 273.27301,358.799988 273.378998,358.799988 C273.484985,358.799988 275.204987,357.809998 277.200012,356.600006 C279.195007,355.390015 280.908997,354.399994 281.006989,354.399994 C281.105011,354.399994 282.313995,353.713013 283.692993,352.873993 C285.071991,352.035004 286.470001,351.222992 286.799988,351.070007 C287.130005,350.915985 287.940002,350.442993 288.600006,350.016998 C289.26001,349.59201 290.609985,348.82901 291.600006,348.321991 C292.589996,347.815002 293.48999,347.311005 293.600006,347.200012 C293.924011,346.876007 295.27301,346.095001 297.200012,345.11499 C298.190002,344.612 299.089996,344.096008 299.200012,343.968994 C299.309998,343.84201 299.940002,343.463989 300.600006,343.128998 C302.951996,341.936005 304.571991,340.993011 305.109985,340.5 C305.411011,340.225006 305.914001,340 306.229004,340 C306.542999,340 306.799988,339.855988 306.799988,339.679993 C306.799988,339.503998 307.565002,338.959015 308.5,338.468994 C312.373993,336.44101 314.210999,335.408997 314.399994,335.156006 C314.51001,335.007996 315.320007,334.496002 316.200012,334.016998 C317.079987,333.539001 318.429993,332.778015 319.200012,332.325989 C319.970001,331.873993 321.410004,331.062012 322.399994,330.52301 C323.390015,329.984009 325.100006,329.009003 326.200012,328.358002 C327.299988,327.707001 328.470001,327.056 328.799988,326.911011 C329.130005,326.765991 330.10199,326.141998 330.959991,325.523987 C331.817993,324.906006 332.677002,324.399994 332.869995,324.399994 C333.062012,324.399994 334.359985,323.679993 335.752991,322.799988 C337.145996,321.920013 338.492004,321.200012 338.743011,321.200012 C338.993988,321.200012 339.200012,321.037994 339.200012,320.838989 C339.200012,320.640991 339.695007,320.290009 340.299988,320.059998 C341.575012,319.574005 344.502991,317.928009 344.808014,317.524994 C344.923004,317.373993 345.463013,317.05899 346.007996,316.825989 C346.553986,316.592987 347.269989,316.22699 347.600006,316.011993 C349.069,315.05899 353.631989,312.399994 353.799988,312.399994 C353.902008,312.399994 355.114014,311.713013 356.493011,310.873993 C357.872009,310.035004 359.269989,309.223999 359.600006,309.071014 C360.61499,308.602997 363.027008,307.04599 364.165009,306.123993 L365.246002,305.248993 L365.222992,247.656998 C365.209991,215.981003 365.09201,189.785004 364.960999,189.442993 C364.742004,188.871002 361.45401,186.565994 359.966003,185.940994 C359.618011,185.794998 358.312012,185.022003 357.065002,184.223999 C355.817993,183.427002 353.673004,182.190002 352.299011,181.475006 C350.924011,180.761002 349.039001,179.686996 348.108002,179.087997 C347.177002,178.490005 346.247009,178 346.040985,178 C345.834991,178 345.606995,177.865005 345.53299,177.699997 C345.459991,177.535004 344.679993,177.044998 343.799988,176.610992 C342.920013,176.175995 341.643005,175.410995 340.962006,174.910995 C340.281006,174.410004 339.528992,174 339.290985,174 C339.052002,174 338.618988,173.774994 338.32901,173.5 C338.037994,173.225006 336.98999,172.587997 336,172.085007 C335.01001,171.582001 333.929993,171.001999 333.600006,170.796005 C332.178009,169.910995 327.654999,167.253998 326,166.330994 C323.69101,165.044006 313.770996,159.298996 312.200012,158.339996 C311.540009,157.936996 310.730011,157.481003 310.399994,157.328003 C309.852997,157.072998 303.42099,153.300995 302,152.401993 C301.670013,152.192993 300.769989,151.707993 300,151.324005 C299.230011,150.940002 297.970001,150.197006 297.200012,149.673004 C296.429993,149.149002 295.440002,148.557999 295,148.360992 C294.559998,148.162994 293.929993,147.826996 293.600006,147.612 C292.131012,146.658997 287.567993,144 287.399994,144 C287.298004,144 286.037994,143.279999 284.600006,142.399994 C283.161987,141.520004 281.821991,140.800003 281.622009,140.800003 C281.42099,140.800003 281.010986,140.574997 280.709015,140.300003 C280.170013,139.807999 277.459991,138.25 275.703003,137.423004 C275.209991,137.190002 274.804993,136.865005 274.803009,136.699997 C274.800995,136.535004 274.542999,136.399994 274.229004,136.399994 C273.914001,136.399994 273.411011,136.175003 273.109985,135.899994 C272.575989,135.410995 272.097992,135.130005 267.600006,132.658997 C266.390015,131.994995 265.339996,131.304001 265.266998,131.125 C265.054993,130.608002 263.513,130.837006 262.105011,131.595993 M266.178009,158.828003 C267.821991,159.804001 272.494995,162.498001 275.200012,164.029999 C276.410004,164.716003 278.390015,165.871994 279.600006,166.600998 C280.809998,167.330002 282.609985,168.369003 283.600006,168.910995 C285.131989,169.75 291.579987,173.505997 295.139008,175.634003 C295.722992,175.983002 297.279999,176.865997 298.600006,177.597 C299.920013,178.328003 301.630005,179.315994 302.399994,179.792007 C303.170013,180.268997 304.070007,180.781998 304.399994,180.934006 C304.730011,181.085007 305.540009,181.557007 306.200012,181.983002 C306.859985,182.408005 308.209991,183.171005 309.200012,183.677994 C310.190002,184.184998 311.089996,184.714996 311.200012,184.856003 C311.309998,184.996994 312.119995,185.505005 313,185.983994 C313.880005,186.464005 315.5,187.391006 316.600006,188.044006 C317.700012,188.697006 319.095001,189.421997 319.700012,189.654999 C320.304993,189.888 320.799988,190.240997 320.799988,190.438995 C320.799988,190.638 321.057007,190.800003 321.371002,190.800003 C321.686005,190.800003 322.188995,191.024994 322.48999,191.300003 C322.790009,191.574997 323.65799,192.141998 324.417999,192.559998 C326.90799,193.929993 327.783997,194.434006 329,195.199005 C329.660004,195.613007 331.505005,196.625 333.100006,197.447006 C334.695007,198.268997 336,199.069 336,199.223999 C336,199.380005 336.315002,199.613998 336.700012,199.746002 C337.084991,199.878006 338.299988,200.501007 339.399994,201.132004 L341.399994,202.278 L341.502014,246.996002 C341.575012,279.407013 341.480988,291.862 341.15799,292.251007 C340.912994,292.54599 339.921997,293.182007 338.955994,293.665009 C337.98999,294.147003 337.200012,294.648987 337.200012,294.779999 C337.200012,294.911011 336.524994,295.369995 335.700012,295.800995 C334.875,296.231995 333.109985,297.239014 331.777008,298.040985 C330.444,298.84201 328.959015,299.622986 328.47699,299.776001 C327.994995,299.928986 327.600006,300.221985 327.600006,300.427002 C327.600006,300.631989 327.394012,300.799988 327.143005,300.799988 C326.891998,300.799988 325.587006,301.479004 324.243011,302.30899 C322.898987,303.139008 320.98999,304.226013 320,304.723999 C317.839996,305.811005 316.67099,306.506012 316.397003,306.867004 C316.285004,307.014008 314.845001,307.815002 313.196991,308.645996 C311.549011,309.477997 310.140015,310.303009 310.066986,310.479004 C309.993011,310.656006 309.756012,310.799988 309.540009,310.799988 C309.324005,310.799988 308.557007,311.25 307.835999,311.799988 C307.114014,312.350006 306.342987,312.799988 306.122009,312.799988 C305.901001,312.799988 305.009003,313.295013 304.139008,313.899994 C301.799988,315.527008 301.174011,315.902008 299.27301,316.815002 C298.322998,317.272003 296.571991,318.268005 295.381989,319.028992 C294.191986,319.790009 292.80899,320.588989 292.30899,320.804993 C291.355011,321.217987 291.251007,321.278015 287.372009,323.690002 C286.036987,324.520996 284.641998,325.200012 284.272003,325.200012 C283.902008,325.200012 283.600006,325.338013 283.600006,325.506012 C283.600006,325.674011 282.654999,326.247986 281.5,326.782013 C280.345001,327.31601 278.864014,328.122986 278.208008,328.575989 C276.717987,329.605988 276.125,329.958008 273.834015,331.17099 C272.825012,331.704987 272,332.269012 272,332.424011 C272,332.579987 271.684998,332.812012 271.299988,332.941986 C270.915009,333.071014 270.329987,333.348999 270,333.559998 C269.670013,333.769989 269.130005,334.044006 268.799988,334.169006 C268.470001,334.292999 267.839996,334.604004 267.399994,334.860992 C263.739014,336.990997 263.881989,336.984985 260.471008,335.15799 C258.782013,334.253998 257.309998,333.39801 257.200012,333.256989 C256.894989,332.86499 253.938995,331.212006 252.699997,330.73999 C252.095001,330.51001 251.600006,330.158997 251.600006,329.960999 C251.600006,329.761993 251.416,329.600006 251.190994,329.600006 C250.779007,329.600006 244.373001,326.019012 244,325.579987 C243.889999,325.450989 242.936005,324.907013 241.880005,324.372009 C240.824005,323.838013 239.608994,323.221985 239.179993,323.005005 C238.751007,322.787994 238.399994,322.472992 238.399994,322.304993 C238.399994,322.136993 238.143005,322 237.828995,322 C237.514008,322 237.011002,321.774994 236.710007,321.5 C236.175995,321.010986 235.593002,320.670013 231.309006,318.338989 C230.158997,317.713013 228.231995,316.571014 227.028,315.800995 C225.824005,315.029999 224.718002,314.399994 224.570007,314.399994 C224.421997,314.399994 223.018997,313.623993 221.451004,312.675995 C219.882996,311.72699 218.330002,310.82901 218,310.678009 C217.669998,310.528015 217.130005,310.229004 216.800003,310.014008 C215.699997,309.296997 211.007996,306.552002 210.399994,306.269989 C210.070007,306.115997 209.259995,305.643005 208.600006,305.217987 C207.302994,304.381989 206.666,304.019012 203,302.024994 C201.679993,301.306 200.330002,300.511993 200,300.259003 C199.397003,299.796997 198.779007,299.43399 196.070999,297.950989 C195.261993,297.507996 194.059998,296.809998 193.399994,296.399994 C192.244003,295.682007 190.044998,294.437012 188.039993,293.365997 C187.511993,293.083008 186.929993,292.615997 186.746002,292.325989 C186.335999,291.678986 186.296005,203.162003 186.705994,202.591003 C187.108002,202.031006 189.080002,200.800003 189.574005,200.800003 C189.957993,200.800003 193.580002,198.470001 194,197.953995 C194.110001,197.819 194.584,197.587997 195.054001,197.442001 C195.522995,197.294998 197.828003,196.011002 200.175003,194.587997 C202.522003,193.164001 204.625,192 204.848007,192 C205.070999,192 205.826004,191.572998 206.526993,191.050003 C207.227005,190.528 208.880005,189.514999 210.199997,188.798996 C211.520004,188.082993 212.869995,187.296005 213.199997,187.048996 C213.934998,186.498993 215.136002,185.820007 217.328995,184.714005 C218.248001,184.251007 219.572998,183.451004 220.272995,182.936005 C220.973999,182.421005 221.651001,182 221.778,182 C221.904999,182 223.608994,181.009995 225.565002,179.800003 C227.520996,178.589996 229.225998,177.600006 229.354004,177.600006 C229.481003,177.600006 230.804001,176.852005 232.292999,175.938004 C233.781998,175.022995 236.119003,173.690002 237.487,172.973999 C238.856003,172.257996 240.475998,171.341003 241.089005,170.936005 C242.919006,169.727005 243.662003,169.304993 246.699997,167.746002 C248.294998,166.927994 249.600006,166.151001 249.600006,166.020004 C249.600006,165.800003 251.395004,164.800003 252.800003,164.237 C253.130005,164.104996 254.227005,163.501999 255.238007,162.897995 C261.588013,159.104004 262.786011,158.345993 263.014008,157.977997 C263.309998,157.498993 264.457001,157.807999 266.178009,158.828003 M104.139999,185.919006 C103.446999,186.294006 102.239998,186.932007 101.459,187.337006 C100.677002,187.742004 99.825996,188.326996 99.569,188.636993 C99.311996,188.947006 98.786003,189.199997 98.400002,189.199997 C98.014,189.199997 97.473999,189.470001 97.199997,189.800003 C96.926003,190.130005 96.454002,190.399994 96.151001,190.399994 C95.848,190.399994 95.599998,190.567993 95.599998,190.772995 C95.599998,190.977997 95.205002,191.270996 94.723,191.423996 C94.240997,191.576996 92.755997,192.365997 91.422997,193.177002 C90.089996,193.988007 88.730003,194.774002 88.400002,194.923004 C87.706001,195.237 86.292,196.106995 86,196.399994 C85.889999,196.511002 84.989998,197.014999 84,197.520996 C81.278,198.914001 78.625,200.481003 78.391998,200.835007 C78.277,201.007996 77.737,201.335999 77.192001,201.563995 C76.646004,201.791 75.300003,202.509995 74.199997,203.160004 C73.099998,203.811005 71.480003,204.733994 70.599998,205.210007 C67.316002,206.988998 67.598999,204.781998 67.605003,228.561996 C67.611,251.475998 67.608002,251.414993 69.038002,251.774002 C69.567001,251.906998 70,252.192001 70,252.408005 C70,252.623001 70.289001,252.800003 70.641998,252.800003 C70.995003,252.800003 72.084,253.339996 73.061996,254 C74.040001,254.660004 74.996002,255.199997 75.186996,255.199997 C75.376999,255.199997 75.593002,255.335007 75.667,255.5 C75.739998,255.664993 76.669998,256.25 77.734001,256.799988 C78.797997,257.350006 79.968002,257.980011 80.334,258.200012 C80.699997,258.420013 82.080002,259.230011 83.400002,260 C84.720001,260.769989 86.160004,261.612 86.599998,261.871002 C87.040001,262.130005 88.029999,262.664001 88.800003,263.058014 C89.57,263.451996 90.830002,264.203003 91.599998,264.72699 C92.370003,265.251007 93.360001,265.850006 93.800003,266.057007 C94.239998,266.265015 94.959999,266.652008 95.400002,266.916992 C95.839996,267.183014 97.279999,268.029999 98.599998,268.799988 C99.919998,269.570007 101.300003,270.380005 101.666,270.600006 C102.031998,270.820007 103.146004,271.431 104.139999,271.958008 L105.948997,272.915985 L107.908997,271.65799 C108.987999,270.966003 110.056999,270.399994 110.286003,270.399994 C110.514999,270.399994 110.913002,270.145996 111.170998,269.834015 C111.43,269.52301 112.397003,268.897003 113.32,268.442993 C114.244003,267.989014 115.900002,267.075989 117,266.414001 C118.099998,265.752014 119.269997,265.085999 119.599998,264.93399 C119.93,264.78299 120.290001,264.545013 120.400002,264.40799 C120.510002,264.269989 121.351997,263.770996 122.271004,263.299988 C124.721001,262.044006 125.703003,261.459991 126.313004,260.899994 C126.612,260.625 127.113998,260.399994 127.429001,260.399994 C127.742996,260.399994 128,260.259003 128,260.088013 C128,259.915985 128.494995,259.566986 129.100006,259.312012 C129.705002,259.057007 131.100006,258.299988 132.199997,257.630005 C133.300003,256.959015 134.470001,256.287994 134.800003,256.136993 C135.130005,255.987 136.371002,255.25 137.557007,254.5 C138.744003,253.75 140.093994,252.970993 140.557007,252.768997 C141.735992,252.255005 142.945999,251.473007 143.294006,251 C143.455994,250.779999 143.591003,240.746994 143.593994,228.705002 L143.600006,206.809998 L142.100006,205.876007 C141.274994,205.362 140.330002,204.820999 140,204.673004 C139.669998,204.526001 139.130005,204.229004 138.800003,204.014008 C137.162994,202.947006 132.757004,200.399994 132.546997,200.399994 C132.416,200.399994 131.009003,199.589996 129.421005,198.600006 C127.832001,197.610001 126.322998,196.800003 126.066002,196.800003 C125.809998,196.800003 125.599998,196.639999 125.599998,196.442993 C125.599998,196.246994 125.150002,195.973999 124.599998,195.835999 C124.050003,195.697998 123.599998,195.408005 123.599998,195.192001 C123.599998,194.977005 123.322998,194.800003 122.984001,194.800003 C122.644997,194.800003 121.834999,194.440002 121.183998,194 C120.532997,193.559998 119.467003,192.839996 118.816002,192.399994 C118.165001,191.960007 117.458,191.600006 117.245003,191.600006 C117.031998,191.600006 116.611,191.375 116.309998,191.100006 C115.797997,190.632004 115.157997,190.253998 111.900002,188.5 C111.184998,188.115005 110.540001,187.664993 110.467003,187.5 C110.392998,187.335007 110.091003,187.199997 109.794998,187.199997 C109.499001,187.199997 109.018997,186.973007 108.728996,186.695007 C107.224998,185.259003 105.806,185.018997 104.139999,185.919006 M108.040001,213.343994 C109.008003,213.863007 110.43,214.671005 111.199997,215.139999 C111.970001,215.608994 112.870003,216.117996 113.199997,216.270996 C113.529999,216.423004 114.970001,217.240005 116.400002,218.085007 C117.830002,218.931 119.269997,219.772003 119.599998,219.955002 C120.759003,220.595993 120.672997,237.335007 119.508003,237.919006 C119.008003,238.169006 117.339996,239.104996 115.800003,240 C114.260002,240.895004 112.550003,241.841995 112,242.104996 C111.449997,242.367996 110.910004,242.697998 110.800003,242.837997 C110.447998,243.285004 106.153,245.600006 105.675003,245.600006 C105.297997,245.600006 102.317001,243.944 99.199997,242.003998 C98.870003,241.798004 97.790001,241.218994 96.800003,240.714996 C95.809998,240.212006 94.910004,239.697006 94.800003,239.570999 C94.690002,239.445007 94.330002,239.220993 94,239.072998 C93.026001,238.638 91.821999,237.830002 91.505997,237.399994 C90.968002,236.667999 91.146004,221.022003 91.699997,220.317001 C91.974998,219.968002 93.730003,218.899002 95.599998,217.940994 C97.470001,216.983002 99.106003,216.056 99.237,215.878998 C99.552002,215.451004 105.278999,212.455002 105.839996,212.423996 C106.083,212.410995 107.072998,212.824997 108.040001,213.343994"></path>
    </defs>
</svg>